<?xml version="1.0" encoding="utf-8" ?>
<svg baseProfile="tiny" height="104" version="1.2" width="656" xmlns="http://www.w3.org/2000/svg" xmlns:ev="http://www.w3.org/2001/xml-events" xmlns:xlink="http://www.w3.org/1999/xlink"><defs /><rect fill="#0d1117" height="100%" width="100%" x="0" y="0" /><rect fill="#161b22" height="10" width="10" x="10" y="10" /><rect fill="#161b22" height="10" width="10" x="10" y="22" /><rect fill="#161b22" height="10" width="10" x="10" y="34" /><rect fill="#161b22" height="10" width="10" x="10" y="46" /><rect fill="#161b22" height="10" width="10" x="10" y="58" /><rect fill="#161b22" height="10" width="10" x="10" y="70" /><rect fill="#161b22" height="10" width="10" x="10" y="82" /><rect fill="#161b22" height="10" width="10" x="22" y="10" /><rect fill="#161b22" height="10" width="10" x="22" y="22" /><rect fill="#161b22" height="10" width="10" x="22" y="34" /><rect fill="#161b22" height="10" width="10" x="22" y="46" /><rect fill="#161b22" height="10" width="10" x="22" y="58" /><rect fill="#161b22" height="10" width="10" x="22" y="70" /><rect fill="#161b22" height="10" width="10" x="22" y="82" /><rect fill="#161b22" height="10" width="10" x="34" y="10" /><rect fill="#161b22" height="10" width="10" x="34" y="22" /><rect fill="#161b22" height="10" width="10" x="34" y="34" /><rect fill="#161b22" height="10" width="10" x="34" y="46" /><rect fill="#161b22" height="10" width="10" x="34" y="58" /><rect fill="#161b22" height="10" width="10" x="34" y="70" /><rect fill="#161b22" height="10" width="10" x="34" y="82" /><rect fill="#161b22" height="10" width="10" x="46" y="10" /><rect fill="#161b22" height="10" width="10" x="46" y="22" /><rect fill="#161b22" height="10" width="10" x="46" y="34" /><rect fill="#161b22" height="10" width="10" x="46" y="46" /><rect fill="#161b22" height="10" width="10" x="46" y="58" /><rect fill="#161b22" height="10" width="10" x="46" y="70" /><rect fill="#161b22" height="10" width="10" x="46" y="82" /><rect fill="#161b22" height="10" width="10" x="58" y="10" /><rect fill="#161b22" height="10" width="10" x="58" y="22" /><rect fill="#161b22" height="10" width="10" x="58" y="34" /><rect fill="#161b22" height="10" width="10" x="58" y="46" /><rect fill="#161b22" height="10" width="10" x="58" y="58" /><rect fill="#161b22" height="10" width="10" x="58" y="70" /><rect fill="#161b22" height="10" width="10" x="58" y="82" /><rect fill="#161b22" height="10" width="10" x="70" y="10" /><rect fill="#161b22" height="10" width="10" x="70" y="22" /><rect fill="#161b22" height="10" width="10" x="70" y="34" /><rect fill="#161b22" height="10" width="10" x="70" y="46" /><rect fill="#161b22" height="10" width="10" x="70" y="58" /><rect fill="#161b22" height="10" width="10" x="70" y="70" /><rect fill="#161b22" height="10" width="10" x="70" y="82" /><rect fill="#161b22" height="10" width="10" x="82" y="10" /><rect fill="#161b22" height="10" width="10" x="82" y="22" /><rect fill="#161b22" height="10" width="10" x="82" y="34" /><rect fill="#161b22" height="10" width="10" x="82" y="46" /><rect fill="#161b22" height="10" width="10" x="82" y="58" /><rect fill="#161b22" height="10" width="10" x="82" y="70" /><rect fill="#161b22" height="10" width="10" x="82" y="82" /><rect fill="#161b22" height="10" width="10" x="94" y="10" /><rect fill="#161b22" height="10" width="10" x="94" y="22" /><rect fill="#161b22" height="10" width="10" x="94" y="34" /><rect fill="#161b22" height="10" width="10" x="94" y="46" /><rect fill="#161b22" height="10" width="10" x="94" y="58" /><rect fill="#161b22" height="10" width="10" x="94" y="70" /><rect fill="#161b22" height="10" width="10" x="94" y="82" /><rect fill="#161b22" height="10" width="10" x="106" y="10" /><rect fill="#161b22" height="10" width="10" x="106" y="22" /><rect fill="#161b22" height="10" width="10" x="106" y="34" /><rect fill="#161b22" height="10" width="10" x="106" y="46" /><rect fill="#161b22" height="10" width="10" x="106" y="58" /><rect fill="#161b22" height="10" width="10" x="106" y="70" /><rect fill="#161b22" height="10" width="10" x="106" y="82" /><rect fill="#161b22" height="10" width="10" x="118" y="10" /><rect fill="#161b22" height="10" width="10" x="118" y="22" /><rect fill="#161b22" height="10" width="10" x="118" y="34" /><rect fill="#161b22" height="10" width="10" x="118" y="46" /><rect fill="#161b22" height="10" width="10" x="118" y="58" /><rect fill="#161b22" height="10" width="10" x="118" y="70" /><rect fill="#161b22" height="10" width="10" x="118" y="82" /><rect fill="#161b22" height="10" width="10" x="130" y="10" /><rect fill="#161b22" height="10" width="10" x="130" y="22" /><rect fill="#161b22" height="10" width="10" x="130" y="34" /><rect fill="#161b22" height="10" width="10" x="130" y="46" /><rect fill="#161b22" height="10" width="10" x="130" y="58" /><rect fill="#161b22" height="10" width="10" x="130" y="70" /><rect fill="#161b22" height="10" width="10" x="130" y="82" /><rect fill="#161b22" height="10" width="10" x="142" y="10" /><rect fill="#161b22" height="10" width="10" x="142" y="22" /><rect fill="#161b22" height="10" width="10" x="142" y="34" /><rect fill="#161b22" height="10" width="10" x="142" y="46" /><rect fill="#161b22" height="10" width="10" x="142" y="58" /><rect fill="#161b22" height="10" width="10" x="142" y="70" /><rect fill="#161b22" height="10" width="10" x="142" y="82" /><rect fill="#161b22" height="10" width="10" x="154" y="10" /><rect fill="#161b22" height="10" width="10" x="154" y="22" /><rect fill="#161b22" height="10" width="10" x="154" y="34" /><rect fill="#161b22" height="10" width="10" x="154" y="46" /><rect fill="#161b22" height="10" width="10" x="154" y="58" /><rect fill="#161b22" height="10" width="10" x="154" y="70" /><rect fill="#161b22" height="10" width="10" x="154" y="82" /><rect fill="#161b22" height="10" width="10" x="166" y="10" /><rect fill="#161b22" height="10" width="10" x="166" y="22" /><rect fill="#161b22" height="10" width="10" x="166" y="34" /><rect fill="#161b22" height="10" width="10" x="166" y="46" /><rect fill="#161b22" height="10" width="10" x="166" y="58" /><rect fill="#161b22" height="10" width="10" x="166" y="70" /><rect fill="#161b22" height="10" width="10" x="166" y="82" /><rect fill="#161b22" height="10" width="10" x="178" y="10" /><rect fill="#161b22" height="10" width="10" x="178" y="22" /><rect fill="#161b22" height="10" width="10" x="178" y="34" /><rect fill="#161b22" height="10" width="10" x="178" y="46" /><rect fill="#161b22" height="10" width="10" x="178" y="58" /><rect fill="#161b22" height="10" width="10" x="178" y="70" /><rect fill="#161b22" height="10" width="10" x="178" y="82" /><rect fill="#161b22" height="10" width="10" x="190" y="10" /><rect fill="#161b22" height="10" width="10" x="190" y="22" /><rect fill="#39d353" height="10" width="10" x="190" y="34" /><rect fill="#161b22" height="10" width="10" x="190" y="46" /><rect fill="#161b22" height="10" width="10" x="190" y="58" /><rect fill="#161b22" height="10" width="10" x="190" y="70" /><rect fill="#161b22" height="10" width="10" x="190" y="82" /><rect fill="#161b22" height="10" width="10" x="202" y="10" /><rect fill="#161b22" height="10" width="10" x="202" y="22" /><rect fill="#161b22" height="10" width="10" x="202" y="34" /><rect fill="#161b22" height="10" width="10" x="202" y="46" /><rect fill="#161b22" height="10" width="10" x="202" y="58" /><rect fill="#161b22" height="10" width="10" x="202" y="70" /><rect fill="#161b22" height="10" width="10" x="202" y="82" /><rect fill="#161b22" height="10" width="10" x="214" y="10" /><rect fill="#161b22" height="10" width="10" x="214" y="22" /><rect fill="#161b22" height="10" width="10" x="214" y="34" /><rect fill="#161b22" height="10" width="10" x="214" y="46" /><rect fill="#161b22" height="10" width="10" x="214" y="58" /><rect fill="#161b22" height="10" width="10" x="214" y="70" /><rect fill="#161b22" height="10" width="10" x="214" y="82" /><rect fill="#161b22" height="10" width="10" x="226" y="10" /><rect fill="#161b22" height="10" width="10" x="226" y="22" /><rect fill="#39d353" height="10" width="10" x="226" y="34" /><rect fill="#161b22" height="10" width="10" x="226" y="46" /><rect fill="#161b22" height="10" width="10" x="226" y="58" /><rect fill="#161b22" height="10" width="10" x="226" y="70" /><rect fill="#161b22" height="10" width="10" x="226" y="82" /><rect fill="#161b22" height="10" width="10" x="238" y="10" /><rect fill="#161b22" height="10" width="10" x="238" y="22" /><rect fill="#161b22" height="10" width="10" x="238" y="34" /><rect fill="#39d353" height="10" width="10" x="238" y="46" /><rect fill="#161b22" height="10" width="10" x="238" y="58" /><rect fill="#161b22" height="10" width="10" x="238" y="70" /><rect fill="#161b22" height="10" width="10" x="238" y="82" /><rect fill="#161b22" height="10" width="10" x="250" y="10" /><rect fill="#161b22" height="10" width="10" x="250" y="22" /><rect fill="#161b22" height="10" width="10" x="250" y="34" /><rect fill="#161b22" height="10" width="10" x="250" y="46" /><rect fill="#161b22" height="10" width="10" x="250" y="58" /><rect fill="#161b22" height="10" width="10" x="250" y="70" /><rect fill="#161b22" height="10" width="10" x="250" y="82" /><rect fill="#161b22" height="10" width="10" x="262" y="10" /><rect fill="#161b22" height="10" width="10" x="262" y="22" /><rect fill="#161b22" height="10" width="10" x="262" y="34" /><rect fill="#161b22" height="10" width="10" x="262" y="46" /><rect fill="#161b22" height="10" width="10" x="262" y="58" /><rect fill="#161b22" height="10" width="10" x="262" y="70" /><rect fill="#161b22" height="10" width="10" x="262" y="82" /><rect fill="#161b22" height="10" width="10" x="274" y="10" /><rect fill="#39d353" height="10" width="10" x="274" y="22" /><rect fill="#161b22" height="10" width="10" x="274" y="34" /><rect fill="#161b22" height="10" width="10" x="274" y="46" /><rect fill="#161b22" height="10" width="10" x="274" y="58" /><rect fill="#161b22" height="10" width="10" x="274" y="70" /><rect fill="#161b22" height="10" width="10" x="274" y="82" /><rect fill="#161b22" height="10" width="10" x="286" y="10" /><rect fill="#161b22" height="10" width="10" x="286" y="22" /><rect fill="#161b22" height="10" width="10" x="286" y="34" /><rect fill="#161b22" height="10" width="10" x="286" y="46" /><rect fill="#161b22" height="10" width="10" x="286" y="58" /><rect fill="#161b22" height="10" width="10" x="286" y="70" /><rect fill="#161b22" height="10" width="10" x="286" y="82" /><rect fill="#161b22" height="10" width="10" x="298" y="10" /><rect fill="#161b22" height="10" width="10" x="298" y="22" /><rect fill="#161b22" height="10" width="10" x="298" y="34" /><rect fill="#161b22" height="10" width="10" x="298" y="46" /><rect fill="#161b22" height="10" width="10" x="298" y="58" /><rect fill="#161b22" height="10" width="10" x="298" y="70" /><rect fill="#161b22" height="10" width="10" x="298" y="82" /><rect fill="#161b22" height="10" width="10" x="310" y="10" /><rect fill="#161b22" height="10" width="10" x="310" y="22" /><rect fill="#161b22" height="10" width="10" x="310" y="34" /><rect fill="#161b22" height="10" width="10" x="310" y="46" /><rect fill="#161b22" height="10" width="10" x="310" y="58" /><rect fill="#161b22" height="10" width="10" x="310" y="70" /><rect fill="#161b22" height="10" width="10" x="310" y="82" /><rect fill="#161b22" height="10" width="10" x="322" y="10" /><rect fill="#161b22" height="10" width="10" x="322" y="22" /><rect fill="#161b22" height="10" width="10" x="322" y="34" /><rect fill="#161b22" height="10" width="10" x="322" y="46" /><rect fill="#161b22" height="10" width="10" x="322" y="58" /><rect fill="#161b22" height="10" width="10" x="322" y="70" /><rect fill="#161b22" height="10" width="10" x="322" y="82" /><rect fill="#161b22" height="10" width="10" x="334" y="10" /><rect fill="#161b22" height="10" width="10" x="334" y="22" /><rect fill="#161b22" height="10" width="10" x="334" y="34" /><rect fill="#161b22" height="10" width="10" x="334" y="46" /><rect fill="#161b22" height="10" width="10" x="334" y="58" /><rect fill="#161b22" height="10" width="10" x="334" y="70" /><rect fill="#161b22" height="10" width="10" x="334" y="82" /><rect fill="#161b22" height="10" width="10" x="346" y="10" /><rect fill="#161b22" height="10" width="10" x="346" y="22" /><rect fill="#161b22" height="10" width="10" x="346" y="34" /><rect fill="#161b22" height="10" width="10" x="346" y="46" /><rect fill="#161b22" height="10" width="10" x="346" y="58" /><rect fill="#161b22" height="10" width="10" x="346" y="70" /><rect fill="#161b22" height="10" width="10" x="346" y="82" /><rect fill="#161b22" height="10" width="10" x="358" y="10" /><rect fill="#161b22" height="10" width="10" x="358" y="22" /><rect fill="#161b22" height="10" width="10" x="358" y="34" /><rect fill="#161b22" height="10" width="10" x="358" y="46" /><rect fill="#161b22" height="10" width="10" x="358" y="58" /><rect fill="#161b22" height="10" width="10" x="358" y="70" /><rect fill="#161b22" height="10" width="10" x="358" y="82" /><rect fill="#161b22" height="10" width="10" x="370" y="10" /><rect fill="#161b22" height="10" width="10" x="370" y="22" /><rect fill="#161b22" height="10" width="10" x="370" y="34" /><rect fill="#39d353" height="10" width="10" x="370" y="46" /><rect fill="#39d353" height="10" width="10" x="370" y="58" /><rect fill="#161b22" height="10" width="10" x="370" y="70" /><rect fill="#161b22" height="10" width="10" x="370" y="82" /><rect fill="#161b22" height="10" width="10" x="382" y="10" /><rect fill="#161b22" height="10" width="10" x="382" y="22" /><rect fill="#161b22" height="10" width="10" x="382" y="34" /><rect fill="#161b22" height="10" width="10" x="382" y="46" /><rect fill="#161b22" height="10" width="10" x="382" y="58" /><rect fill="#161b22" height="10" width="10" x="382" y="70" /><rect fill="#161b22" height="10" width="10" x="382" y="82" /><rect fill="#161b22" height="10" width="10" x="394" y="10" /><rect fill="#39d353" height="10" width="10" x="394" y="22" /><rect fill="#39d353" height="10" width="10" x="394" y="34" /><rect fill="#161b22" height="10" width="10" x="394" y="46" /><rect fill="#161b22" height="10" width="10" x="394" y="58" /><rect fill="#161b22" height="10" width="10" x="394" y="70" /><rect fill="#161b22" height="10" width="10" x="394" y="82" /><rect fill="#161b22" height="10" width="10" x="406" y="10" /><rect fill="#161b22" height="10" width="10" x="406" y="22" /><rect fill="#161b22" height="10" width="10" x="406" y="34" /><rect fill="#161b22" height="10" width="10" x="406" y="46" /><rect fill="#161b22" height="10" width="10" x="406" y="58" /><rect fill="#161b22" height="10" width="10" x="406" y="70" /><rect fill="#161b22" height="10" width="10" x="406" y="82" /><rect fill="#161b22" height="10" width="10" x="418" y="10" /><rect fill="#161b22" height="10" width="10" x="418" y="22" /><rect fill="#39d353" height="10" width="10" x="418" y="34" /><rect fill="#161b22" height="10" width="10" x="418" y="46" /><rect fill="#161b22" height="10" width="10" x="418" y="58" /><rect fill="#161b22" height="10" width="10" x="418" y="70" /><rect fill="#161b22" height="10" width="10" x="418" y="82" /><rect fill="#161b22" height="10" width="10" x="430" y="10" /><rect fill="#39d353" height="10" width="10" x="430" y="22" /><rect fill="#39d353" height="10" width="10" x="430" y="34" /><rect fill="#39d353" height="10" width="10" x="430" y="46" /><rect fill="#161b22" height="10" width="10" x="430" y="58" /><rect fill="#161b22" height="10" width="10" x="430" y="70" /><rect fill="#161b22" height="10" width="10" x="430" y="82" /><rect fill="#161b22" height="10" width="10" x="442" y="10" /><rect fill="#161b22" height="10" width="10" x="442" y="22" /><rect fill="#39d353" height="10" width="10" x="442" y="34" /><rect fill="#161b22" height="10" width="10" x="442" y="46" /><rect fill="#161b22" height="10" width="10" x="442" y="58" /><rect fill="#161b22" height="10" width="10" x="442" y="70" /><rect fill="#39d353" height="10" width="10" x="442" y="82" /><rect fill="#39d353" height="10" width="10" x="454" y="10" /><rect fill="#161b22" height="10" width="10" x="454" y="22" /><rect fill="#161b22" height="10" width="10" x="454" y="34" /><rect fill="#161b22" height="10" width="10" x="454" y="46" /><rect fill="#161b22" height="10" width="10" x="454" y="58" /><rect fill="#39d353" height="10" width="10" x="454" y="70" /><rect fill="#161b22" height="10" width="10" x="454" y="82" /><rect fill="#39d353" height="10" width="10" x="466" y="10" /><rect fill="#161b22" height="10" width="10" x="466" y="22" /><rect fill="#161b22" height="10" width="10" x="466" y="34" /><rect fill="#161b22" height="10" width="10" x="466" y="46" /><rect fill="#161b22" height="10" width="10" x="466" y="58" /><rect fill="#161b22" height="10" width="10" x="466" y="70" /><rect fill="#161b22" height="10" width="10" x="466" y="82" /><rect fill="#161b22" height="10" width="10" x="478" y="10" /><rect fill="#161b22" height="10" width="10" x="478" y="22" /><rect fill="#161b22" height="10" width="10" x="478" y="34" /><rect fill="#161b22" height="10" width="10" x="478" y="46" /><rect fill="#161b22" height="10" width="10" x="478" y="58" /><rect fill="#161b22" height="10" width="10" x="478" y="70" /><rect fill="#161b22" height="10" width="10" x="478" y="82" /><rect fill="#161b22" height="10" width="10" x="490" y="10" /><rect fill="#161b22" height="10" width="10" x="490" y="22" /><rect fill="#161b22" height="10" width="10" x="490" y="34" /><rect fill="#161b22" height="10" width="10" x="490" y="46" /><rect fill="#161b22" height="10" width="10" x="490" y="58" /><rect fill="#161b22" height="10" width="10" x="490" y="70" /><rect fill="#161b22" height="10" width="10" x="490" y="82" /><rect fill="#161b22" height="10" width="10" x="502" y="10" /><rect fill="#161b22" height="10" width="10" x="502" y="22" /><rect fill="#161b22" height="10" width="10" x="502" y="34" /><rect fill="#161b22" height="10" width="10" x="502" y="46" /><rect fill="#161b22" height="10" width="10" x="502" y="58" /><rect fill="#161b22" height="10" width="10" x="502" y="70" /><rect fill="#161b22" height="10" width="10" x="502" y="82" /><rect fill="#161b22" height="10" width="10" x="514" y="10" /><rect fill="#161b22" height="10" width="10" x="514" y="22" /><rect fill="#161b22" height="10" width="10" x="514" y="34" /><rect fill="#39d353" height="10" width="10" x="514" y="46" /><rect fill="#161b22" height="10" width="10" x="514" y="58" /><rect fill="#161b22" height="10" width="10" x="514" y="70" /><rect fill="#161b22" height="10" width="10" x="514" y="82" /><rect fill="#161b22" height="10" width="10" x="526" y="10" /><rect fill="#161b22" height="10" width="10" x="526" y="22" /><rect fill="#161b22" height="10" width="10" x="526" y="34" /><rect fill="#161b22" height="10" width="10" x="526" y="46" /><rect fill="#161b22" height="10" width="10" x="526" y="58" /><rect fill="#161b22" height="10" width="10" x="526" y="70" /><rect fill="#161b22" height="10" width="10" x="526" y="82" /><rect fill="#161b22" height="10" width="10" x="538" y="10" /><rect fill="#39d353" height="10" width="10" x="538" y="22" /><rect fill="#39d353" height="10" width="10" x="538" y="34" /><rect fill="#161b22" height="10" width="10" x="538" y="46" /><rect fill="#161b22" height="10" width="10" x="538" y="58" /><rect fill="#161b22" height="10" width="10" x="538" y="70" /><rect fill="#161b22" height="10" width="10" x="538" y="82" /><rect fill="#161b22" height="10" width="10" x="550" y="10" /><rect fill="#161b22" height="10" width="10" x="550" y="22" /><rect fill="#39d353" height="10" width="10" x="550" y="34" /><rect fill="#161b22" height="10" width="10" x="550" y="46" /><rect fill="#161b22" height="10" width="10" x="550" y="58" /><rect fill="#161b22" height="10" width="10" x="550" y="70" /><rect fill="#161b22" height="10" width="10" x="550" y="82" /><rect fill="#161b22" height="10" width="10" x="562" y="10" /><rect fill="#39d353" height="10" width="10" x="562" y="22" /><rect fill="#39d353" height="10" width="10" x="562" y="34" /><rect fill="#161b22" height="10" width="10" x="562" y="46" /><rect fill="#39d353" height="10" width="10" x="562" y="58" /><rect fill="#161b22" height="10" width="10" x="562" y="70" /><rect fill="#39d353" height="10" width="10" x="562" y="82" /><rect fill="#39d353" height="10" width="10" x="574" y="10" /><rect fill="#39d353" height="10" width="10" x="574" y="22" /><rect fill="#39d353" height="10" width="10" x="574" y="34" /><rect fill="#161b22" height="10" width="10" x="574" y="46" /><rect fill="#39d353" height="10" width="10" x="574" y="58" /><rect fill="#39d353" height="10" width="10" x="574" y="70" /><rect fill="#39d353" height="10" width="10" x="574" y="82" /><rect fill="#39d353" height="10" width="10" x="586" y="10" /><rect fill="#39d353" height="10" width="10" x="586" y="22" /><rect fill="#161b22" height="10" width="10" x="586" y="34" /><rect fill="#161b22" height="10" width="10" x="586" y="46" /><rect fill="#39d353" height="10" width="10" x="586" y="58" /><rect fill="#39d353" height="10" width="10" x="586" y="70" /><rect fill="#161b22" height="10" width="10" x="586" y="82" /><rect fill="#161b22" height="10" width="10" x="598" y="10" /><rect fill="#39d353" height="10" width="10" x="598" y="22" /><rect fill="#161b22" height="10" width="10" x="598" y="34" /><rect fill="#161b22" height="10" width="10" x="598" y="46" /><rect fill="#39d353" height="10" width="10" x="598" y="58" /><rect fill="#39d353" height="10" width="10" x="598" y="70" /><rect fill="#39d353" height="10" width="10" x="598" y="82" /><rect fill="#161b22" height="10" width="10" x="610" y="10" /><rect fill="#39d353" height="10" width="10" x="610" y="22" /><rect fill="#161b22" height="10" width="10" x="610" y="34" /><rect fill="#161b22" height="10" width="10" x="610" y="46" /><rect fill="#39d353" height="10" width="10" x="610" y="58" /><rect fill="#161b22" height="10" width="10" x="610" y="70" /><rect fill="#39d353" height="10" width="10" x="610" y="82" /><rect fill="#39d353" height="10" width="10" x="622" y="10" /><rect fill="#161b22" height="10" width="10" x="622" y="22" /><rect fill="#161b22" height="10" width="10" x="622" y="34" /><rect fill="#161b22" height="10" width="10" x="622" y="46" /><rect fill="#161b22" height="10" width="10" x="622" y="58" /><rect fill="#161b22" height="10" width="10" x="622" y="70" /><rect fill="#161b22" height="10" width="10" x="622" y="82" /><rect fill="#161b22" height="10" width="10" x="634" y="10" /><rect fill="#161b22" height="10" width="10" x="634" y="22" /><rect fill="#161b22" height="10" width="10" x="634" y="34" /><rect fill="#161b22" height="10" width="10" x="634" y="46" /><rect fill="#161b22" height="10" width="10" x="634" y="58" /><rect fill="#161b22" height="10" width="10" x="634" y="70" /><rect fill="#39d353" height="10" width="10" x="634" y="82" /><image height="24" width="24" x="-2" xlink:href="assets/ryu_pixel.svg" y="70" /><image height="12" width="12" x="190" xlink:href="assets/hadouken_pixel.svg" y="34" /><image height="12" width="12" x="226" xlink:href="assets/hadouken_pixel.svg" y="34" /><image height="12" width="12" x="238" xlink:href="assets/hadouken_pixel.svg" y="46" /><image height="12" width="12" x="274" xlink:href="assets/hadouken_pixel.svg" y="22" /><image height="12" width="12" x="370" xlink:href="assets/hadouken_pixel.svg" y="46" /><image height="12" width="12" x="370" xlink:href="assets/hadouken_pixel.svg" y="58" /><image height="12" width="12" x="394" xlink:href="assets/hadouken_pixel.svg" y="22" /><image height="12" width="12" x="394" xlink:href="assets/hadouken_pixel.svg" y="34" /><image height="12" width="12" x="418" xlink:href="assets/hadouken_pixel.svg" y="34" /><image height="12" width="12" x="430" xlink:href="assets/hadouken_pixel.svg" y="22" /><image height="12" width="12" x="430" xlink:href="assets/hadouken_pixel.svg" y="34" /><image height="12" width="12" x="430" xlink:href="assets/hadouken_pixel.svg" y="46" /><image height="12" width="12" x="442" xlink:href="assets/hadouken_pixel.svg" y="34" /><image height="12" width="12" x="442" xlink:href="assets/hadouken_pixel.svg" y="82" /><image height="12" width="12" x="454" xlink:href="assets/hadouken_pixel.svg" y="10" /><image height="12" width="12" x="454" xlink:href="assets/hadouken_pixel.svg" y="70" /><image height="12" width="12" x="466" xlink:href="assets/hadouken_pixel.svg" y="10" /><image height="12" width="12" x="514" xlink:href="assets/hadouken_pixel.svg" y="46" /><image height="12" width="12" x="538" xlink:href="assets/hadouken_pixel.svg" y="22" /><image height="12" width="12" x="538" xlink:href="assets/hadouken_pixel.svg" y="34" /><image height="12" width="12" x="550" xlink:href="assets/hadouken_pixel.svg" y="34" /><image height="12" width="12" x="562" xlink:href="assets/hadouken_pixel.svg" y="22" /><image height="12" width="12" x="562" xlink:href="assets/hadouken_pixel.svg" y="34" /><image height="12" width="12" x="562" xlink:href="assets/hadouken_pixel.svg" y="58" /><image height="12" width="12" x="562" xlink:href="assets/hadouken_pixel.svg" y="82" /><image height="12" width="12" x="574" xlink:href="assets/hadouken_pixel.svg" y="10" /><image height="12" width="12" x="574" xlink:href="assets/hadouken_pixel.svg" y="22" /><image height="12" width="12" x="574" xlink:href="assets/hadouken_pixel.svg" y="34" /><image height="12" width="12" x="574" xlink:href="assets/hadouken_pixel.svg" y="58" /><image height="12" width="12" x="574" xlink:href="assets/hadouken_pixel.svg" y="70" /><image height="12" width="12" x="574" xlink:href="assets/hadouken_pixel.svg" y="82" /><image height="12" width="12" x="586" xlink:href="assets/hadouken_pixel.svg" y="10" /><image height="12" width="12" x="586" xlink:href="assets/hadouken_pixel.svg" y="22" /><image height="12" width="12" x="586" xlink:href="assets/hadouken_pixel.svg" y="58" /><image height="12" width="12" x="586" xlink:href="assets/hadouken_pixel.svg" y="70" /><image height="12" width="12" x="598" xlink:href="assets/hadouken_pixel.svg" y="22" /><image height="12" width="12" x="598" xlink:href="assets/hadouken_pixel.svg" y="58" /><image height="12" width="12" x="598" xlink:href="assets/hadouken_pixel.svg" y="70" /><image height="12" width="12" x="598" xlink:href="assets/hadouken_pixel.svg" y="82" /><image height="12" width="12" x="610" xlink:href="assets/hadouken_pixel.svg" y="22" /><image height="12" width="12" x="610" xlink:href="assets/hadouken_pixel.svg" y="58" /><image height="12" width="12" x="610" xlink:href="assets/hadouken_pixel.svg" y="82" /><image height="12" width="12" x="622" xlink:href="assets/hadouken_pixel.svg" y="10" /><image height="12" width="12" x="634" xlink:href="assets/hadouken_pixel.svg" y="82" /></svg>